<svg width="491" height="150" viewBox="0 0 491 150" fill="none" xmlns="http://www.w3.org/2000/svg">
<g clip-path="url(#clip0_1_159)">
<path d="M194.558 118H183.94L214.651 34.3636H225.105L255.815 118H245.197L220.205 47.5952H219.551L194.558 118ZM198.479 85.3295H241.277V94.3139H198.479V85.3295ZM268.21 118V55.2727H277.847V118H268.21ZM273.11 44.8182C271.232 44.8182 269.612 44.1784 268.251 42.8988C266.916 41.6192 266.249 40.081 266.249 38.2841C266.249 36.4872 266.916 34.949 268.251 33.6694C269.612 32.3898 271.232 31.75 273.11 31.75C274.989 31.75 276.595 32.3898 277.929 33.6694C279.29 34.949 279.971 36.4872 279.971 38.2841C279.971 40.081 279.29 41.6192 277.929 42.8988C276.595 44.1784 274.989 44.8182 273.11 44.8182ZM295.5 118V55.2727H304.811V64.7472H305.464C306.608 61.6435 308.677 59.1251 311.672 57.1921C314.666 55.2591 318.042 54.2926 321.799 54.2926C322.507 54.2926 323.392 54.3062 324.454 54.3334C325.516 54.3607 326.319 54.4015 326.863 54.456V64.2571C326.537 64.1754 325.788 64.0529 324.617 63.8896C323.474 63.699 322.262 63.6037 320.983 63.6037C317.933 63.6037 315.211 64.2435 312.815 65.5231C310.446 66.7754 308.568 68.5179 307.179 70.7504C305.818 72.9556 305.138 75.474 305.138 78.3054V118H295.5ZM410.163 76.1818C410.163 85.0028 408.57 92.6259 405.385 99.0511C402.199 105.476 397.83 110.431 392.276 113.916C386.722 117.401 380.378 119.143 373.245 119.143C366.112 119.143 359.769 117.401 354.215 113.916C348.661 110.431 344.291 105.476 341.106 99.0511C337.92 92.6259 336.328 85.0028 336.328 76.1818C336.328 67.3608 337.92 59.7377 341.106 53.3125C344.291 46.8873 348.661 41.9323 354.215 38.4474C359.769 34.9626 366.112 33.2202 373.245 33.2202C380.378 33.2202 386.722 34.9626 392.276 38.4474C397.83 41.9323 402.199 46.8873 405.385 53.3125C408.57 59.7377 410.163 67.3608 410.163 76.1818ZM400.362 76.1818C400.362 68.9399 399.15 62.8278 396.727 57.8455C394.331 52.8633 391.078 49.0926 386.967 46.5334C382.883 43.9742 378.309 42.6946 373.245 42.6946C368.181 42.6946 363.594 43.9742 359.483 46.5334C355.399 49.0926 352.146 52.8633 349.722 57.8455C347.327 62.8278 346.129 68.9399 346.129 76.1818C346.129 83.4238 347.327 89.5359 349.722 94.5181C352.146 99.5004 355.399 103.271 359.483 105.83C363.594 108.389 368.181 109.669 373.245 109.669C378.309 109.669 382.883 108.389 386.967 105.83C391.078 103.271 394.331 99.5004 396.727 94.5181C399.15 89.5359 400.362 83.4238 400.362 76.1818ZM472.931 55.2727C472.441 51.1345 470.453 47.9219 466.969 45.6349C463.484 43.348 459.209 42.2045 454.145 42.2045C450.443 42.2045 447.203 42.8035 444.426 44.0014C441.676 45.1993 439.525 46.8465 437.974 48.9428C436.449 51.0392 435.687 53.4214 435.687 56.0895C435.687 58.322 436.218 60.2414 437.279 61.8477C438.368 63.4267 439.757 64.7472 441.445 65.8089C443.133 66.8435 444.902 67.7011 446.754 68.3817C448.605 69.0352 450.307 69.5661 451.858 69.9744L460.353 72.2614C462.531 72.8331 464.954 73.6226 467.622 74.63C470.317 75.6373 472.89 77.0122 475.34 78.7546C477.818 80.4698 479.86 82.6751 481.466 85.3704C483.072 88.0657 483.876 91.3736 483.876 95.294C483.876 99.8134 482.691 103.897 480.323 107.545C477.981 111.194 474.551 114.093 470.031 116.244C465.539 118.395 460.081 119.47 453.655 119.47C447.666 119.47 442.479 118.504 438.096 116.571C433.74 114.638 430.31 111.942 427.805 108.485C425.327 105.027 423.925 101.011 423.599 96.4375H434.053C434.325 99.5956 435.387 102.209 437.238 104.278C439.117 106.32 441.486 107.845 444.344 108.852C447.23 109.832 450.334 110.322 453.655 110.322C457.521 110.322 460.993 109.696 464.069 108.444C467.146 107.164 469.582 105.395 471.379 103.135C473.176 100.848 474.074 98.1799 474.074 95.1307C474.074 92.3537 473.298 90.094 471.747 88.3516C470.195 86.6091 468.153 85.1934 465.621 84.1044C463.089 83.0154 460.353 82.0625 457.412 81.2457L447.121 78.3054C440.587 76.4268 435.414 73.7451 431.603 70.2603C427.791 66.7754 425.885 62.2152 425.885 56.5795C425.885 51.8968 427.151 47.813 429.683 44.3281C432.243 40.816 435.673 38.0935 439.975 36.1605C444.303 34.2003 449.136 33.2202 454.472 33.2202C459.863 33.2202 464.654 34.1867 468.847 36.1197C473.04 38.0254 476.361 40.6391 478.812 43.9606C481.289 47.2821 482.596 51.0528 482.732 55.2727H472.931Z" fill="white"/>
<path d="M153.454 70.1381C151.91 64.1224 147.111 59.3347 139.768 56.6675C138.769 56.3046 137.965 55.5559 137.563 54.6139L118.309 9.52943C116.615 5.56305 112.742 3 108.441 3H81.1958C78.8478 3 76.8266 4.80499 76.7167 7.15104C76.5988 9.65589 78.5941 11.7231 81.073 11.7231H85.1606L92.6057 46.965C93.0009 48.808 92.4067 50.7086 91.0171 52.0494L81.0213 61.6937C79.6863 62.8922 74 68.3618 74 74.4996C74 80.6375 79.6863 86.1063 81.0213 87.3056L91.0171 96.9499C92.4067 98.2907 93.0002 100.192 92.6029 102.048L85.1606 137.277H81.2009C78.8528 137.277 76.8324 139.081 76.7217 141.427C76.6039 143.932 78.5992 146 81.078 146H108.447C112.748 146 116.621 143.437 118.315 139.471L137.568 94.3868C137.971 93.4448 138.774 92.6961 139.774 92.3332C148.815 89.0502 154 82.5502 154 74.5011L153.958 73.337C153.927 72.5157 153.819 71.6995 153.632 70.8997L153.455 70.1395L153.454 70.1381ZM136.795 84.1325C133.535 85.3159 130.893 87.8042 129.546 90.9587L110.292 136.043C109.972 136.792 109.248 137.275 108.445 137.275H94.0744L101.133 103.862C102.164 99.0509 100.646 94.1203 97.072 90.672L87.0158 80.9694L86.8821 80.8458C85.1814 79.3362 82.7205 76.2076 82.7205 74.4989C82.7205 72.7902 85.1426 69.7134 86.8821 68.152L97.0713 58.3259C100.645 54.8776 102.163 49.9469 101.134 45.1485L94.0729 11.7224H108.439C109.241 11.7224 109.966 12.206 110.285 12.9547L129.539 58.0392C130.886 61.1936 133.529 63.6819 136.788 64.8654C140.657 66.2708 145.269 69.0825 145.269 74.4982V74.7806C145.113 80.0123 140.594 82.7507 136.793 84.131L136.795 84.1325Z" fill="white"/>
<path d="M55.5473 19.435H69.3971C71.9637 19.435 74.0478 21.517 74.0478 24.0811C74.0478 26.6451 71.9637 28.7272 69.3971 28.7272H55.5473C52.9807 28.7272 50.8966 26.6451 50.8966 24.0811C50.8966 21.517 52.9807 19.435 55.5473 19.435Z" fill="white"/>
<path d="M33.3942 45.4029H57.4564C60.0252 45.4029 62.1071 43.323 62.1071 40.7568C62.1071 38.1906 60.0252 36.1107 57.4564 36.1107H33.3942C30.8255 36.1107 28.7435 38.1906 28.7435 40.7568C28.7435 43.323 30.8255 45.4029 33.3942 45.4029Z" fill="white"/>
<path d="M20.6253 62.4629H48.4143C50.983 62.4629 53.065 60.383 53.065 57.8168C53.065 55.2505 50.983 53.1707 48.4143 53.1707H20.6253C18.0565 53.1707 15.9746 55.2505 15.9746 57.8168C15.9746 60.383 18.0565 62.4629 20.6253 62.4629Z" fill="white"/>
<path d="M69.3971 120.103H55.5473C52.9785 120.103 50.8966 122.183 50.8966 124.749C50.8966 127.315 52.9785 129.395 55.5473 129.395H69.3971C71.9659 129.395 74.0478 127.315 74.0478 124.749C74.0478 122.183 71.9659 120.103 69.3971 120.103Z" fill="white"/>
<path d="M33.3942 103.427H57.4564C60.023 103.427 62.1071 105.509 62.1071 108.073C62.1071 110.638 60.023 112.72 57.4564 112.72H33.3942C30.8276 112.72 28.7435 110.638 28.7435 108.073C28.7435 105.509 30.8276 103.427 33.3942 103.427Z" fill="white"/>
<path d="M53.0643 91.0136C53.0643 88.4473 50.9823 86.3675 48.4136 86.3675H20.6253C18.0565 86.3675 15.9746 88.4473 15.9746 91.0136C15.9746 93.5798 18.0565 95.6597 20.6253 95.6597H48.4143C50.983 95.6597 53.065 93.5798 53.065 91.0136H53.0643Z" fill="white"/>
<path d="M44.5161 74.4155C44.5161 71.8493 42.4342 69.7694 39.8654 69.7694H13.6507C11.0819 69.7694 9 71.8493 9 74.4155C9 76.9817 11.0819 79.0616 13.6507 79.0616H39.8654C42.4342 79.0616 44.5161 76.9817 44.5161 74.4155Z" fill="white"/>
</g>
<defs>
<clipPath id="clip0_1_159">
<rect width="490.303" height="149.2" fill="white"/>
</clipPath>
</defs>
</svg>
