<svg width="389" height="387" viewBox="0 0 389 387" fill="none" xmlns="http://www.w3.org/2000/svg">
<g clip-path="url(#clip0_2_29)">
<path d="M387.526 181.697C383.346 165.417 370.355 152.46 350.477 145.241C347.774 144.259 345.597 142.233 344.508 139.684L292.388 17.6707C287.804 6.93645 277.318 0 265.675 0H191.923C185.567 0 180.095 4.88488 179.798 11.234C179.479 18.013 184.88 23.6076 191.59 23.6076H202.655L222.809 118.983C223.879 123.971 222.271 129.115 218.509 132.743L191.45 158.844C187.836 162.088 172.444 176.89 172.444 193.501C172.444 210.112 187.836 224.912 191.45 228.158L218.509 254.259C222.271 257.887 223.877 263.033 222.802 268.056L202.655 363.396H191.936C185.58 363.396 180.111 368.279 179.811 374.628C179.492 381.407 184.894 387.004 191.604 387.004H265.691C277.334 387.004 287.819 380.067 292.404 369.335L344.524 247.322C345.613 244.773 347.787 242.746 350.493 241.764C374.967 232.879 389.004 215.288 389.004 193.505L388.889 190.355C388.807 188.132 388.514 185.923 388.008 183.758L387.528 181.701L387.526 181.697ZM342.431 219.57C333.604 222.773 326.453 229.507 322.806 238.044L270.686 360.057C269.82 362.084 267.86 363.392 265.687 363.392H226.785L245.893 272.966C248.684 259.945 244.574 246.601 234.9 237.268L207.677 211.01L207.316 210.676C202.712 206.59 196.05 198.123 196.05 193.499C196.05 188.875 202.607 180.548 207.316 176.322L234.898 149.73C244.572 140.397 248.68 127.053 245.897 114.067L226.781 23.6057H265.67C267.84 23.6057 269.803 24.9144 270.668 26.9407L322.788 148.954C326.435 157.491 333.589 164.225 342.411 167.428C352.885 171.231 365.37 178.841 365.37 193.497V194.261C364.946 208.42 352.714 215.831 342.425 219.567L342.431 219.57Z" fill="#4495FF"/>
<path d="M125.717 44.8895H163.123C170.055 44.8895 175.684 50.5172 175.684 57.4479C175.684 64.3785 170.055 70.0062 163.123 70.0062H125.717C118.785 70.0062 113.156 64.3785 113.156 57.4479C113.156 50.5172 118.785 44.8895 125.717 44.8895Z" fill="#4495FF"/>
<path d="M65.8849 115.08H130.873C137.811 115.08 143.434 109.459 143.434 102.522C143.434 95.5857 137.811 89.9638 130.873 89.9638H65.8849C58.9471 89.9638 53.3241 95.5857 53.3241 102.522C53.3241 109.459 58.9471 115.08 65.8849 115.08Z" fill="#4495FF"/>
<path d="M31.3981 161.193H106.452C113.39 161.193 119.013 155.571 119.013 148.635C119.013 141.698 113.39 136.076 106.452 136.076H31.3981C24.4603 136.076 18.8373 141.698 18.8373 148.635C18.8373 155.571 24.4603 161.193 31.3981 161.193Z" fill="#4495FF"/>
<path d="M163.123 316.994H125.717C118.779 316.994 113.156 322.616 113.156 329.552C113.156 336.489 118.779 342.111 125.717 342.111H163.123C170.061 342.111 175.684 336.489 175.684 329.552C175.684 322.616 170.061 316.994 163.123 316.994Z" fill="#4495FF"/>
<path d="M65.8849 271.92H130.873C137.805 271.92 143.434 277.547 143.434 284.478C143.434 291.409 137.805 297.036 130.873 297.036H65.8849C58.953 297.036 53.3241 291.409 53.3241 284.478C53.3241 277.547 58.953 271.92 65.8849 271.92Z" fill="#4495FF"/>
<path d="M119.011 238.365C119.011 231.429 113.388 225.807 106.45 225.807H31.3981C24.4603 225.807 18.8373 231.429 18.8373 238.365C18.8373 245.302 24.4603 250.924 31.3981 250.924H106.452C113.39 250.924 119.013 245.302 119.013 238.365H119.011Z" fill="#4495FF"/>
<path d="M95.9235 193.501C95.9235 186.565 90.3005 180.943 83.3627 180.943H12.5608C5.623 180.943 0 186.565 0 193.501C0 200.437 5.623 206.059 12.5608 206.059H83.3627C90.3005 206.059 95.9235 200.437 95.9235 193.501Z" fill="#4495FF"/>
</g>
<defs>
<clipPath id="clip0_2_29">
<rect width="389" height="387" fill="white"/>
</clipPath>
</defs>
</svg>
