<svg width="26" height="20" viewBox="0 0 26 20" fill="none" xmlns="http://www.w3.org/2000/svg">
<path d="M25.961 4.40303L24.8777 1.69469C24.8509 1.62776 24.8111 1.56683 24.7605 1.51549C24.7099 1.46415 24.6495 1.42342 24.583 1.39569L21.333 0.0415282C21.2507 0.00728552 21.1611 -0.00609973 21.0724 0.0025607C20.9836 0.0112211 20.8984 0.0416592 20.8242 0.0911732C20.7501 0.140687 20.6893 0.207746 20.6473 0.286396C20.6052 0.365046 20.5833 0.452855 20.5833 0.542028V2.78886L16.8372 7.46778C16.4811 7.91372 15.9931 8.23555 15.4429 8.38714C14.8928 8.53874 14.3088 8.51233 13.7746 8.3117L13.3716 8.16003C13.2979 8.13203 13.2191 8.12043 13.1405 8.12605C13.0619 8.13166 12.9855 8.15435 12.9166 8.19253L10.7911 9.37336C10.7096 9.41836 10.6412 9.48359 10.5923 9.56274C10.5434 9.64189 10.5157 9.73231 10.5119 9.82528C10.508 9.91825 10.5282 10.0106 10.5705 10.0935C10.6128 10.1764 10.6757 10.247 10.7532 10.2985C10.8772 10.382 10.9762 10.4975 11.0398 10.6327C11.1034 10.768 11.1291 10.918 11.1142 11.0667C11.0993 11.2154 11.0444 11.3573 10.9552 11.4773C10.8661 11.5973 10.7461 11.6908 10.608 11.748L3.328 14.7489L0.925168 12.346C0.849411 12.2701 0.752808 12.2183 0.647607 12.1974C0.542407 12.1764 0.433345 12.1871 0.334249 12.2282C0.235153 12.2693 0.150485 12.3388 0.090979 12.4281C0.031473 12.5173 -0.000191062 12.6223 8.67372e-07 12.7295V15.7477C6.84982e-05 15.8227 0.0157019 15.8968 0.0459114 15.9654C0.0761209 16.0341 0.120249 16.0957 0.175501 16.1464L2.40717 18.1971C3.28203 18.9966 4.42435 19.4399 5.6095 19.4397C5.91356 19.4396 6.21688 19.4098 6.51517 19.3509L22.3134 16.2395C22.4104 16.2202 22.5003 16.1746 22.5733 16.1077C22.6462 16.0409 22.6995 15.9553 22.7273 15.8604L25.9773 4.75619C26.0122 4.64005 26.0064 4.51547 25.961 4.40303ZM4.68867 18.2307L3.95525 15.6632L11.0208 12.749C11.2759 12.6435 11.5052 12.4839 11.6927 12.2813C11.8803 12.0787 12.0218 11.8378 12.1075 11.5753C12.1931 11.3128 12.2209 11.0349 12.1889 10.7606C12.1569 10.4863 12.0659 10.2223 11.9221 9.98653L13.2253 9.26286L13.3933 9.32461C14.1412 9.60749 14.9597 9.64556 15.7307 9.43334C16.5017 9.22112 17.1854 8.76957 17.6833 8.14378L21.4695 3.41611L24.869 4.6912L21.7815 15.2407L6.305 18.2892C5.76867 18.3914 5.21621 18.3714 4.68867 18.2307ZM1.08333 14.0371L2.81667 15.7704C2.83075 15.7845 2.85242 15.7856 2.86758 15.7975L3.37242 17.5666C3.29658 17.507 3.211 17.4648 3.1395 17.3998L1.08333 15.5094V14.0371ZM23.9568 2.30894L24.3728 3.34894L21.6667 2.33386V1.35453L23.9568 2.30894Z" fill="black"/>
</svg>
